<svg width="96" height="96" xmlns="http://www.w3.org/2000/svg" xmlns:xlink="http://www.w3.org/1999/xlink" overflow="hidden"><defs><clipPath id="clip0"><rect x="109" y="60" width="96" height="96"/></clipPath></defs><g clip-path="url(#clip0)" transform="translate(-109 -60)"><path d="M181 68 133 68C130.794 68.0066 129.007 69.7936 129 72L129 144C129.007 146.206 130.794 147.993 133 148L181 148C183.206 147.993 184.993 146.206 185 144L185 72C184.993 69.7936 183.206 68.0066 181 68ZM183 144C183 145.105 182.105 146 181 146L133 146C131.895 146 131 145.105 131 144L131 72C131 70.8954 131.895 70 133 70L181 70C182.105 70 183 70.8954 183 72Z" fill="#101C32"/><path d="M139 95 175 95 175 77 139 77ZM141 79 173 79 173 93 141 93Z" fill="#101C32"/><path d="M140 102 144 102 144 106 140 106Z" fill="#101C32"/><path d="M150 102 154 102 154 106 150 106Z" fill="#101C32"/><path d="M160 102 164 102 164 106 160 106Z" fill="#101C32"/><path d="M170 102 174 102 174 106 170 106Z" fill="#101C32"/><path d="M140 112 144 112 144 116 140 116Z" fill="#101C32"/><path d="M150 112 154 112 154 116 150 116Z" fill="#101C32"/><path d="M160 112 164 112 164 116 160 116Z" fill="#101C32"/><path d="M170 112 174 112 174 116 170 116Z" fill="#101C32"/><path d="M140 122 144 122 144 126 140 126Z" fill="#101C32"/><path d="M150 122 154 122 154 126 150 126Z" fill="#101C32"/><path d="M160 122 164 122 164 126 160 126Z" fill="#101C32"/><path d="M170 122 174 122 174 126 170 126Z" fill="#101C32"/><path d="M140 132 154 132 154 136 140 136Z" fill="#101C32"/><path d="M160 132 164 132 164 136 160 136Z" fill="#101C32"/><path d="M170 132 174 132 174 136 170 136Z" fill="#101C32"/></g></svg>