<svg width="96" height="96" xmlns="http://www.w3.org/2000/svg" xmlns:xlink="http://www.w3.org/1999/xlink" overflow="hidden"><defs><clipPath id="clip0"><rect x="927" y="60" width="96" height="96"/></clipPath></defs><g clip-path="url(#clip0)" transform="translate(-927 -60)"><path d="M999 68 951 68C948.794 68.0066 947.007 69.7936 947 72L947 144C947.007 146.206 948.794 147.993 951 148L999 148C1001.21 147.993 1002.99 146.206 1003 144L1003 72C1002.99 69.7936 1001.21 68.0066 999 68ZM1001 144C1001 145.105 1000.1 146 999 146L951 146C949.895 146 949 145.105 949 144L949 72C949 70.8954 949.895 70 951 70L999 70C1000.1 70 1001 70.8954 1001 72Z" fill="#FFFFFF"/><path d="M957 95 993 95 993 77 957 77ZM959 79 991 79 991 93 959 93Z" fill="#FFFFFF"/><path d="M958 102 962 102 962 106 958 106Z" fill="#FFFFFF"/><path d="M968 102 972 102 972 106 968 106Z" fill="#FFFFFF"/><path d="M978 102 982 102 982 106 978 106Z" fill="#FFFFFF"/><path d="M988 102 992 102 992 106 988 106Z" fill="#FFFFFF"/><path d="M958 112 962 112 962 116 958 116Z" fill="#FFFFFF"/><path d="M968 112 972 112 972 116 968 116Z" fill="#FFFFFF"/><path d="M978 112 982 112 982 116 978 116Z" fill="#FFFFFF"/><path d="M988 112 992 112 992 116 988 116Z" fill="#FFFFFF"/><path d="M958 122 962 122 962 126 958 126Z" fill="#FFFFFF"/><path d="M968 122 972 122 972 126 968 126Z" fill="#FFFFFF"/><path d="M978 122 982 122 982 126 978 126Z" fill="#FFFFFF"/><path d="M988 122 992 122 992 126 988 126Z" fill="#FFFFFF"/><path d="M958 132 972 132 972 136 958 136Z" fill="#FFFFFF"/><path d="M978 132 982 132 982 136 978 136Z" fill="#FFFFFF"/><path d="M988 132 992 132 992 136 988 136Z" fill="#FFFFFF"/></g></svg>