<svg width="96" height="96" xmlns="http://www.w3.org/2000/svg" xmlns:xlink="http://www.w3.org/1999/xlink" overflow="hidden"><defs><clipPath id="clip0"><rect x="1061" y="300" width="96" height="96"/></clipPath></defs><g clip-path="url(#clip0)" transform="translate(-1061 -300)"><path d="M1077 337 1092 337 1092 344 1099 337 1105 337 1109 344 1113 337 1119 337 1126 344 1126 337 1142 337C1144.21 337 1146 335.209 1146 333L1146 312C1146 309.791 1144.21 308 1142 308L1077 308C1074.79 308 1073 309.791 1073 312L1073 333C1073 335.209 1074.79 337 1077 337ZM1075 312C1075 310.895 1075.9 310 1077 310L1142 310C1143.1 310 1144 310.895 1144 312L1144 333C1144 334.105 1143.1 335 1142 335L1124 335 1124 339.172 1120.41 335.586 1119.83 335 1111.84 335 1111.26 336.008 1109 339.969 1106.74 336.008 1106.16 335 1098.17 335 1097.59 335.586 1094 339.172 1094 335 1077 335C1075.9 335 1075 334.105 1075 333Z"/><path d="M1089 317 1136 317 1136 319 1089 319Z"/><path d="M1083 322 1136 322 1136 324 1083 324Z"/><path d="M1099 327 1136 327 1136 329 1099 329Z"/><path d="M1123.26 356.74C1123.26 361.014 1126.73 364.477 1131 364.476 1135.28 364.475 1138.74 361.01 1138.74 356.736 1138.74 352.463 1135.27 349 1131 349 1126.73 349.001 1123.26 352.466 1123.26 356.74ZM1136.74 356.74C1136.74 359.909 1134.17 362.477 1131 362.476 1127.83 362.475 1125.26 359.905 1125.26 356.736 1125.26 353.568 1127.83 351 1131 351 1134.17 351.004 1136.74 353.572 1136.74 356.74Z"/><path d="M1081.26 356.945C1081.26 361.219 1084.73 364.682 1089 364.681 1093.28 364.68 1096.74 361.215 1096.74 356.941 1096.74 352.668 1093.27 349.205 1089 349.205 1084.73 349.206 1081.26 352.671 1081.26 356.945ZM1094.74 356.945C1094.74 360.114 1092.17 362.682 1089 362.681 1085.83 362.68 1083.26 360.11 1083.26 356.941 1083.26 353.773 1085.83 351.205 1089 351.205 1092.17 351.209 1094.73 353.777 1094.74 356.945Z"/><path d="M1145.13 370.619C1142.86 368.866 1140.25 367.591 1137.47 366.873 1135.38 366.228 1133.19 365.897 1131 365.892 1128.81 365.927 1126.64 366.256 1124.54 366.869 1121.79 367.668 1119.2 368.934 1116.88 370.612 1116.72 370.734 1116.58 370.864 1116.44 371.002 1116.64 371.058 1116.84 371.102 1117.05 371.162 1117.66 371.335 1118.24 371.527 1118.81 371.728 1120.74 370.445 1122.85 369.458 1125.08 368.8 1127 368.238 1128.99 367.935 1131 367.9 1133 367.906 1135 368.209 1136.91 368.8 1139.44 369.446 1141.81 370.596 1143.88 372.182 1144.56 372.714 1144.98 373.525 1145 374.394L1145 380.794 1147 380.794 1147 374.394C1146.98 372.919 1146.29 371.533 1145.13 370.619Z"/><path d="M1101.06 371.8C1101.7 371.558 1102.35 371.339 1102.99 371.156 1103.13 371.119 1103.25 371.093 1103.39 371.056 1103.31 370.979 1103.22 370.899 1103.13 370.828 1100.86 369.074 1098.26 367.799 1095.48 367.08 1093.38 366.436 1091.2 366.105 1089 366.1 1086.81 366.136 1084.64 366.464 1082.54 367.076 1079.79 367.875 1077.2 369.141 1074.88 370.82 1073.71 371.734 1073.03 373.122 1073 374.6L1073 381 1075 381 1075 374.6C1075.02 373.744 1075.42 372.94 1076.09 372.408 1078.21 370.888 1080.57 369.735 1083.08 369 1085 368.438 1086.99 368.135 1089 368.1 1091 368.107 1093 368.41 1094.91 369 1097.1 369.586 1099.18 370.532 1101.06 371.8Z"/><path d="M1124.13 376.825C1121.86 375.071 1119.25 373.796 1116.47 373.077 1114.38 372.434 1112.19 372.104 1110 372.1 1107.81 372.136 1105.64 372.464 1103.54 373.076 1100.79 373.875 1098.2 375.141 1095.88 376.82 1094.71 377.734 1094.03 379.122 1094 380.6L1094 387 1096 387 1096 380.6C1096.02 379.744 1096.42 378.94 1097.09 378.408 1099.21 376.888 1101.57 375.735 1104.08 375 1106 374.438 1107.99 374.135 1110 374.1 1112 374.107 1114 374.41 1115.91 375 1118.44 375.646 1120.81 376.797 1122.88 378.382 1123.56 378.915 1123.98 379.729 1124 380.6L1124 387 1126 387 1126 380.6C1125.98 379.125 1125.29 377.739 1124.13 376.825Z"/><path d="M1102.26 362.945C1102.26 367.219 1105.73 370.682 1110 370.681 1114.28 370.68 1117.74 367.215 1117.74 362.941 1117.74 358.668 1114.27 355.205 1110 355.205 1105.73 355.206 1102.26 358.671 1102.26 362.945ZM1115.74 362.945C1115.74 366.114 1113.17 368.682 1110 368.681 1106.83 368.68 1104.26 366.11 1104.26 362.941 1104.26 359.773 1106.83 357.205 1110 357.205 1113.17 357.209 1115.73 359.777 1115.74 362.945Z"/></g></svg>