<svg width="96" height="96" xmlns="http://www.w3.org/2000/svg" xmlns:xlink="http://www.w3.org/1999/xlink" overflow="hidden"><defs><clipPath id="clip0"><rect x="1061" y="180" width="96" height="96"/></clipPath></defs><g clip-path="url(#clip0)" transform="translate(-1061 -180)"><path d="M1079.59 219.978C1079.59 219.426 1079.14 218.978 1078.59 218.978 1078.03 218.978 1077.59 219.426 1077.59 219.978L1077.59 227.391 1080.77 239 1068.4 239 1071.58 227.532 1071.58 219.983C1071.58 219.431 1071.14 218.983 1070.58 218.983 1070.03 218.983 1069.58 219.431 1069.58 219.983L1069.58 227.259 1065.77 241 1069.59 241 1069.59 256 1079.59 256 1079.59 241 1083.4 241 1079.58 227.26ZM1071.59 241 1073.59 241 1073.59 254 1071.59 254ZM1077.59 254.005 1075.59 254.005 1075.59 241 1077.59 241Z" fill="#FFFFFF"/><path d="M1104.59 218.978C1104.04 218.978 1103.59 219.426 1103.59 219.978L1103.59 254 1101.59 254 1101.59 233.978 1099.59 233.978 1099.59 254 1097.59 254 1097.59 219.978C1097.59 219.426 1097.14 218.978 1096.59 218.978 1096.04 218.978 1095.59 219.426 1095.59 219.978L1095.59 256 1105.59 256 1105.59 219.978C1105.59 219.426 1105.14 218.978 1104.59 218.978Z" fill="#FFFFFF"/><path d="M1100.59 209.978C1103.35 209.978 1105.59 207.739 1105.59 204.978 1105.59 202.217 1103.35 199.978 1100.59 199.978 1097.82 199.978 1095.59 202.217 1095.59 204.978 1095.59 207.738 1097.83 209.975 1100.59 209.978ZM1100.59 201.978C1102.24 201.978 1103.59 203.321 1103.59 204.978 1103.59 206.635 1102.24 207.978 1100.59 207.978 1098.93 207.978 1097.59 206.635 1097.59 204.978 1097.59 203.321 1098.93 201.978 1100.59 201.978Z" fill="#FFFFFF"/><path d="M1074.59 209.978C1077.35 209.978 1079.59 207.739 1079.59 204.978 1079.59 202.217 1077.35 199.978 1074.59 199.978 1071.82 199.978 1069.59 202.217 1069.59 204.978 1069.59 207.738 1071.83 209.975 1074.59 209.978ZM1074.59 201.978C1076.24 201.978 1077.59 203.321 1077.59 204.978 1077.59 206.635 1076.24 207.978 1074.59 207.978 1072.93 207.978 1071.59 206.635 1071.59 204.978 1071.59 203.321 1072.93 201.978 1074.59 201.978Z" fill="#FFFFFF"/><path d="M1083.45 216.235C1083.45 216.223 1083.44 216.178 1083.44 216.166 1083.29 215.528 1082.93 214.961 1082.4 214.566 1081.13 213.611 1079.69 212.907 1078.16 212.49 1076.99 212.16 1075.78 211.988 1074.56 211.978 1073.31 211.996 1072.08 212.168 1070.87 212.488 1069.35 212.897 1067.93 213.589 1066.67 214.528 1066.14 214.937 1065.76 215.514 1065.59 216.166 1065.59 216.178 1065.59 216.19 1065.59 216.202 1065.59 216.214 1065.58 216.223 1065.57 216.235L1063.05 230.554C1062.79 232.024 1063.5 233.496 1064.82 234.2 1065.31 234.439 1065.91 234.23 1066.15 233.732 1066.38 233.249 1066.19 232.67 1065.72 232.417 1065.19 232.11 1064.91 231.501 1065.02 230.898L1067.53 216.648C1067.59 216.464 1067.69 216.298 1067.83 216.165 1068.89 215.367 1070.09 214.778 1071.38 214.429 1072.42 214.15 1073.49 214 1074.56 213.982 1075.61 213.993 1076.64 214.142 1077.64 214.425 1078.93 214.774 1080.14 215.364 1081.21 216.165 1081.36 216.285 1081.46 216.456 1081.5 216.646L1084.01 230.891C1084.12 231.497 1083.84 232.109 1083.31 232.417 1082.8 232.64 1082.58 233.23 1082.8 233.735 1083.02 234.241 1083.61 234.47 1084.12 234.247 1084.15 234.233 1084.18 234.217 1084.21 234.2 1085.53 233.495 1086.24 232.021 1085.98 230.55Z" fill="#FFFFFF"/><path d="M1109.45 216.235C1109.45 216.223 1109.44 216.178 1109.44 216.166 1109.29 215.528 1108.93 214.961 1108.4 214.566 1107.13 213.611 1105.69 212.907 1104.16 212.49 1102.99 212.16 1101.78 211.988 1100.56 211.978 1099.31 211.996 1098.08 212.168 1096.87 212.488 1095.35 212.897 1093.93 213.589 1092.67 214.528 1092.14 214.937 1091.76 215.514 1091.59 216.166 1091.59 216.178 1091.59 216.19 1091.59 216.202 1091.59 216.214 1091.58 216.223 1091.57 216.235L1089.05 230.554C1088.79 232.024 1089.5 233.496 1090.82 234.2 1091.31 234.439 1091.91 234.23 1092.15 233.732 1092.38 233.249 1092.19 232.67 1091.72 232.417 1091.19 232.11 1090.91 231.501 1091.02 230.898L1093.53 216.648C1093.59 216.464 1093.69 216.298 1093.83 216.165 1094.89 215.367 1096.09 214.778 1097.38 214.429 1098.42 214.15 1099.49 214 1100.56 213.982 1101.61 213.993 1102.64 214.142 1103.64 214.425 1104.93 214.774 1106.14 215.364 1107.21 216.165 1107.36 216.285 1107.46 216.456 1107.5 216.646L1110.01 230.891C1110.12 231.497 1109.84 232.109 1109.31 232.417 1108.8 232.64 1108.58 233.23 1108.8 233.735 1109.02 234.241 1109.61 234.47 1110.12 234.247 1110.15 234.233 1110.18 234.217 1110.21 234.2 1111.53 233.495 1112.24 232.021 1111.98 230.55Z" fill="#FFFFFF"/><path d="M1131.27 254C1123.48 254.014 1117.16 247.712 1117.14 239.925 1117.14 238.869 1117.26 237.817 1117.49 236.788 1117.13 236.3 1116.85 235.751 1116.68 235.168L1116.29 233.921C1112.96 242.177 1116.95 251.572 1125.21 254.904 1133.19 258.126 1142.3 254.506 1145.89 246.681L1144.63 244.451C1142.69 250.177 1137.31 254.023 1131.27 254Z" fill="#FFFFFF"/><path d="M1154.55 244.149 1147.42 231.667C1146.81 230.623 1145.69 229.982 1144.48 229.982L1135.81 229.982 1134.71 219.873C1134.45 218.365 1133.59 217.024 1132.34 216.144 1131.08 215.26 1129.52 214.923 1128.01 215.209 1127.33 215.328 1126.68 215.57 1126.09 215.924L1117.17 221.213C1115.82 222.003 1115.18 223.615 1115.64 225.113L1118.6 234.605C1119.03 236.02 1120.34 236.987 1121.81 236.986 1122.1 236.966 1122.38 236.923 1122.66 236.856 1123.09 236.762 1123.39 236.373 1123.37 235.935L1123.36 235.735C1123.34 235.238 1122.92 234.854 1122.42 234.877 1122.37 234.88 1122.31 234.887 1122.26 234.899 1122.03 234.949 1121.85 234.987 1121.81 234.987 1121.21 234.989 1120.68 234.598 1120.51 234.025L1117.55 224.537C1117.37 223.928 1117.63 223.277 1118.17 222.946L1127.13 217.633C1128.4 216.895 1129.98 216.953 1131.19 217.782 1131.99 218.343 1132.55 219.197 1132.73 220.16L1134.02 231.983 1144.48 231.983C1144.97 231.978 1145.44 232.239 1145.69 232.668L1152.82 245.147C1153.18 245.798 1152.97 246.619 1152.34 247.02 1152.11 247.139 1151.86 247.204 1151.6 247.211 1151.11 247.224 1150.64 246.963 1150.4 246.531L1143.69 234.676 1130.81 234.676C1128.99 234.679 1127.43 233.375 1127.11 231.581L1125.74 223.886 1126.51 223.431C1126.99 223.149 1127.14 222.535 1126.86 222.06 1126.58 221.585 1125.96 221.429 1125.49 221.711L1121.99 223.791C1121.51 224.073 1121.36 224.687 1121.64 225.162 1121.92 225.637 1122.54 225.793 1123.01 225.511L1123.91 224.977 1125.14 231.932C1125.64 234.68 1128.03 236.679 1130.82 236.676L1142.53 236.676 1148.65 247.5C1149.24 248.57 1150.38 249.226 1151.6 249.21 1152.19 249.201 1152.77 249.053 1153.29 248.778 1154.91 247.846 1155.48 245.776 1154.55 244.149Z" fill="#FFFFFF"/><path d="M1128.18 214.642C1131.12 214.642 1133.5 212.26 1133.5 209.321 1133.5 206.382 1131.12 204 1128.18 204 1125.24 204 1122.86 206.382 1122.86 209.321 1122.86 212.258 1125.24 214.639 1128.18 214.642ZM1128.18 206C1130.02 206 1131.5 207.487 1131.5 209.321 1131.5 211.155 1130.02 212.642 1128.18 212.642 1126.35 212.642 1124.86 211.155 1124.86 209.321 1124.86 207.488 1126.35 206.002 1128.18 206Z" fill="#FFFFFF"/></g></svg>