<svg width="96" height="96" xmlns="http://www.w3.org/2000/svg" xmlns:xlink="http://www.w3.org/1999/xlink" overflow="hidden"><defs><clipPath id="clip0"><rect x="242" y="180" width="96" height="96"/></clipPath></defs><g clip-path="url(#clip0)" transform="translate(-242 -180)"><path d="M260.586 219.978C260.586 219.426 260.138 218.978 259.586 218.978 259.034 218.978 258.586 219.426 258.586 219.978L258.586 227.391 261.773 239 249.4 239 252.585 227.532 252.585 219.983C252.585 219.431 252.137 218.983 251.585 218.983 251.033 218.983 250.585 219.431 250.585 219.983L250.585 227.259 246.772 241 250.588 241 250.588 256 260.588 256 260.588 241 264.4 241 260.585 227.26ZM252.588 241 254.588 241 254.588 254 252.588 254ZM258.588 254.005 256.588 254.005 256.588 241 258.588 241Z" fill="#101C32"/><path d="M285.588 218.978C285.036 218.978 284.588 219.426 284.588 219.978L284.588 254 282.588 254 282.588 233.978 280.588 233.978 280.588 254 278.588 254 278.588 219.978C278.588 219.426 278.14 218.978 277.588 218.978 277.036 218.978 276.588 219.426 276.588 219.978L276.588 256 286.588 256 286.588 219.978C286.588 219.426 286.14 218.978 285.588 218.978Z" fill="#101C32"/><path d="M281.586 209.978C284.347 209.978 286.586 207.739 286.586 204.978 286.586 202.217 284.347 199.978 281.586 199.978 278.825 199.978 276.586 202.217 276.586 204.978 276.589 207.738 278.826 209.975 281.586 209.978ZM281.586 201.978C283.243 201.978 284.586 203.321 284.586 204.978 284.586 206.635 283.243 207.978 281.586 207.978 279.929 207.978 278.586 206.635 278.586 204.978 278.586 203.321 279.929 201.978 281.586 201.978Z" fill="#101C32"/><path d="M255.586 209.978C258.347 209.978 260.586 207.739 260.586 204.978 260.586 202.217 258.347 199.978 255.586 199.978 252.825 199.978 250.586 202.217 250.586 204.978 250.589 207.738 252.826 209.975 255.586 209.978ZM255.586 201.978C257.243 201.978 258.586 203.321 258.586 204.978 258.586 206.635 257.243 207.978 255.586 207.978 253.929 207.978 252.586 206.635 252.586 204.978 252.586 203.321 253.929 201.978 255.586 201.978Z" fill="#101C32"/><path d="M264.455 216.235C264.455 216.223 264.444 216.178 264.44 216.166 264.293 215.528 263.926 214.961 263.404 214.566 262.134 213.611 260.694 212.907 259.16 212.49 257.988 212.16 256.777 211.988 255.56 211.978 254.314 211.996 253.075 212.168 251.871 212.488 250.355 212.897 248.93 213.589 247.671 214.528 247.136 214.937 246.755 215.514 246.588 216.166 246.588 216.178 246.588 216.19 246.588 216.202 246.588 216.214 246.577 216.223 246.575 216.235L244.049 230.554C243.786 232.024 244.5 233.496 245.817 234.2 246.315 234.439 246.912 234.23 247.151 233.732 247.383 233.249 247.194 232.67 246.722 232.417 246.191 232.11 245.91 231.501 246.022 230.898L248.534 216.648C248.589 216.464 248.69 216.298 248.828 216.165 249.89 215.367 251.094 214.778 252.376 214.429 253.417 214.15 254.488 214 255.565 213.982 256.606 213.993 257.641 214.142 258.642 214.425 259.93 214.774 261.139 215.364 262.206 216.165 262.358 216.285 262.461 216.456 262.499 216.646L265.01 230.891C265.124 231.497 264.844 232.109 264.31 232.417 263.805 232.64 263.576 233.23 263.798 233.735 264.021 234.241 264.611 234.47 265.117 234.247 265.149 234.233 265.18 234.217 265.21 234.2 266.528 233.495 267.241 232.021 266.977 230.55Z" fill="#101C32"/><path d="M290.455 216.235C290.455 216.223 290.444 216.178 290.44 216.166 290.293 215.528 289.926 214.961 289.404 214.566 288.134 213.611 286.694 212.907 285.16 212.49 283.988 212.16 282.777 211.988 281.56 211.978 280.314 211.996 279.075 212.168 277.871 212.488 276.355 212.897 274.93 213.589 273.671 214.528 273.137 214.937 272.755 215.514 272.588 216.166 272.588 216.178 272.588 216.19 272.588 216.202 272.588 216.214 272.577 216.223 272.575 216.235L270.049 230.554C269.786 232.024 270.5 233.496 271.817 234.2 272.315 234.439 272.912 234.23 273.151 233.732 273.383 233.249 273.194 232.67 272.722 232.417 272.19 232.11 271.91 231.501 272.022 230.898L274.534 216.648C274.589 216.464 274.69 216.298 274.828 216.165 275.89 215.367 277.094 214.778 278.376 214.429 279.417 214.15 280.488 214 281.565 213.982 282.606 213.993 283.641 214.142 284.642 214.425 285.93 214.774 287.139 215.364 288.206 216.165 288.358 216.285 288.461 216.456 288.499 216.646L291.01 230.891C291.124 231.497 290.844 232.109 290.31 232.417 289.805 232.64 289.576 233.23 289.798 233.735 290.021 234.241 290.611 234.47 291.117 234.247 291.149 234.233 291.18 234.217 291.21 234.2 292.528 233.495 293.241 232.021 292.977 230.55Z" fill="#101C32"/><path d="M312.268 254C304.481 254.014 298.157 247.712 298.143 239.925 298.142 238.869 298.258 237.817 298.491 236.788 298.128 236.3 297.853 235.751 297.68 235.168L297.29 233.921C293.958 242.177 297.949 251.572 306.206 254.904 314.19 258.126 323.297 254.506 326.89 246.681L325.629 244.451C323.693 250.177 318.312 254.023 312.268 254Z" fill="#101C32"/><path d="M335.55 244.149 328.418 231.667C327.806 230.623 326.686 229.982 325.476 229.982L316.811 229.982 315.711 219.873C315.446 218.365 314.594 217.024 313.341 216.144 312.082 215.26 310.519 214.923 309.007 215.209 308.33 215.328 307.68 215.57 307.09 215.924L298.168 221.213C296.818 222.003 296.184 223.615 296.635 225.113L299.6 234.605C300.03 236.02 301.336 236.987 302.815 236.986 303.101 236.966 303.384 236.923 303.663 236.856 304.092 236.762 304.39 236.373 304.37 235.935L304.36 235.735C304.337 235.238 303.916 234.854 303.42 234.877 303.366 234.88 303.312 234.887 303.26 234.899 303.034 234.949 302.85 234.987 302.811 234.987 302.212 234.989 301.684 234.598 301.511 234.025L298.546 224.537C298.372 223.928 298.626 223.277 299.166 222.946L308.128 217.633C309.397 216.895 310.978 216.953 312.19 217.782 312.994 218.343 313.547 219.197 313.73 220.16L315.016 231.983 325.476 231.983C325.973 231.978 326.435 232.239 326.687 232.668L333.816 245.147C334.18 245.798 333.973 246.619 333.344 247.02 333.115 247.139 332.862 247.204 332.604 247.211 332.107 247.224 331.643 246.963 331.395 246.531L324.695 234.676 311.815 234.676C309.993 234.679 308.43 233.375 308.108 231.581L306.744 223.886 307.511 223.431C307.986 223.149 308.142 222.535 307.86 222.06 307.578 221.585 306.964 221.429 306.489 221.711L302.989 223.791C302.514 224.073 302.358 224.687 302.64 225.162 302.922 225.637 303.536 225.793 304.011 225.511L304.911 224.977 306.144 231.932C306.636 234.68 309.027 236.679 311.819 236.676L323.527 236.676 329.645 247.5C330.241 248.57 331.376 249.226 332.6 249.21 333.189 249.201 333.767 249.053 334.288 248.778 335.911 247.846 336.475 245.776 335.55 244.149Z" fill="#101C32"/><path d="M309.181 214.642C312.12 214.642 314.502 212.26 314.502 209.321 314.502 206.382 312.12 204 309.181 204 306.242 204 303.86 206.382 303.86 209.321 303.863 212.258 306.244 214.639 309.181 214.642ZM309.181 206C311.015 206 312.502 207.487 312.502 209.321 312.502 211.155 311.015 212.642 309.181 212.642 307.347 212.642 305.86 211.155 305.86 209.321 305.862 207.488 307.348 206.002 309.181 206Z" fill="#101C32"/></g></svg>