<svg width="96" height="96" xmlns="http://www.w3.org/2000/svg" xmlns:xlink="http://www.w3.org/1999/xlink" overflow="hidden"><defs><clipPath id="clip0"><rect x="942" y="180" width="96" height="96"/></clipPath></defs><g clip-path="url(#clip0)" transform="translate(-942 -180)"><path d="M1003.09 235.254 1003.09 229 1001.09 229 1001.09 237.253 1003.09 235.254Z" fill="#FFFFFF"/><path d="M1007.09 231.252 1007.09 215C1007.09 214.448 1006.64 214 1006.09 214 1005.54 214 1005.09 214.448 1005.09 215L1005.09 233.252Z" fill="#FFFFFF"/><path d="M999.092 239.251 999.092 215C999.092 214.448 998.644 214 998.092 214 997.54 214 997.092 214.448 997.092 215L997.092 241.251Z" fill="#FFFFFF"/><path d="M985.414 233.757 985.414 215C985.414 214.448 984.966 214 984.414 214 983.862 214 983.414 214.448 983.414 215L983.414 231.757Z" fill="#FFFFFF"/><path d="M977.414 229.929 977.414 215C977.414 214.448 976.966 214 976.414 214 975.862 214 975.414 214.448 975.414 215L975.414 231.929Z" fill="#FFFFFF"/><path d="M948.643 229.218C949.136 229.466 949.738 229.267 949.986 228.774 950.232 228.283 950.037 227.686 949.549 227.435 949.018 227.128 948.737 226.52 948.849 225.916L951.356 211.672C951.411 211.485 951.515 211.316 951.656 211.182 952.717 210.385 953.919 209.796 955.2 209.447 956.241 209.168 957.312 209.018 958.389 209 959.43 209.01 960.465 209.159 961.466 209.443 962.754 209.791 963.963 210.382 965.03 211.183 965.172 211.29 965.272 211.442 965.314 211.615L968.43 228.185C968.533 228.728 969.056 229.084 969.599 228.981 970.003 228.905 970.318 228.589 970.395 228.185L973.495 211.674C973.532 211.479 973.639 211.305 973.795 211.183 974.864 210.381 976.075 209.79 977.365 209.441 978.365 209.158 979.399 209.01 980.438 209 981.51 209.018 982.575 209.166 983.61 209.443 984.911 209.797 986.133 210.395 987.21 211.206 987.314 211.318 987.397 211.447 987.456 211.588L990.1 228.158C990.177 228.638 990.587 228.993 991.073 229 991.555 228.994 991.969 228.656 992.073 228.185L995.173 211.674C995.209 211.479 995.316 211.304 995.473 211.183 996.542 210.381 997.753 209.79 999.043 209.441 1000.04 209.158 1001.08 209.01 1002.11 209 1003.19 209.017 1004.25 209.166 1005.29 209.443 1006.59 209.797 1007.81 210.395 1008.89 211.206 1008.99 211.319 1009.08 211.449 1009.13 211.591L1011.6 226.747 1013.34 225 1011.09 211.183C1010.93 210.549 1010.56 209.985 1010.05 209.578 1008.78 208.622 1007.33 207.917 1005.79 207.502 1004.59 207.185 1003.36 207.016 1002.11 207 1000.9 207.01 999.692 207.182 998.522 207.51 996.987 207.926 995.545 208.629 994.273 209.583 993.737 209.995 993.365 210.585 993.225 211.246L991.18 222.113C991.174 222.144 991.165 222.144 991.16 222.113L989.411 211.187C989.251 210.553 988.886 209.989 988.374 209.582 987.098 208.626 985.651 207.921 984.111 207.506 982.912 207.188 981.678 207.018 980.438 207 979.223 207.01 978.015 207.182 976.845 207.51 975.311 207.926 973.871 208.629 972.6 209.583 972.063 209.994 971.691 210.584 971.551 211.246L969.423 222.539C969.423 222.568 969.409 222.568 969.403 222.539L967.268 211.189C967.122 210.548 966.754 209.979 966.23 209.583 964.96 208.629 963.52 207.926 961.987 207.512 960.815 207.182 959.604 207.01 958.387 207 957.141 207.018 955.903 207.189 954.699 207.51 953.183 207.919 951.758 208.611 950.499 209.55 949.946 209.975 949.558 210.578 949.399 211.257L946.876 225.576C946.615 227.044 947.328 228.514 948.643 229.218Z" fill="#FFFFFF"/><path d="M980.412 205C977.651 205 975.412 202.761 975.412 200 975.412 197.239 977.651 195 980.412 195 983.173 195 985.412 197.239 985.412 200 985.409 202.76 983.172 204.997 980.412 205ZM980.412 197C978.755 197 977.412 198.343 977.412 200 977.412 201.657 978.755 203 980.412 203 982.069 203 983.412 201.657 983.412 200 983.412 198.343 982.069 197 980.412 197Z" fill="#FFFFFF"/><path d="M958.412 205C955.651 205 953.412 202.761 953.412 200 953.412 197.239 955.651 195 958.412 195 961.173 195 963.412 197.239 963.412 200 963.409 202.76 961.172 204.997 958.412 205ZM958.412 197C956.755 197 955.412 198.343 955.412 200 955.412 201.657 956.755 203 958.412 203 960.069 203 961.412 201.657 961.412 200 961.412 198.343 960.069 197 958.412 197Z" fill="#FFFFFF"/><path d="M1002.09 205C999.329 205 997.09 202.761 997.09 200 997.09 197.239 999.329 195 1002.09 195 1004.85 195 1007.09 197.239 1007.09 200 1007.09 202.76 1004.85 204.997 1002.09 205ZM1002.09 197C1000.43 197 999.09 198.343 999.09 200 999.09 201.657 1000.43 203 1002.09 203 1003.75 203 1005.09 201.657 1005.09 200 1005.09 198.343 1003.75 197 1002.09 197Z" fill="#FFFFFF"/><path d="M953.415 236.017 953.415 251.022 956.322 251.022 959.412 247.931 959.412 236.017 961.412 236.017 961.412 245.928 963.412 243.928 963.412 236.017 967.228 236.017 963.415 222.276 963.415 215C963.415 214.448 962.967 214 962.415 214 961.863 214 961.415 214.448 961.415 215L961.415 222.413 964.601 234.013 952.23 234.013 955.415 222.545 955.415 214.996C955.415 214.444 954.967 213.996 954.415 213.996 953.863 213.996 953.415 214.444 953.415 214.996L953.415 222.272 949.6 236.017ZM955.415 236.017 957.415 236.017 957.415 249.022 955.415 249.022Z" fill="#FFFFFF"/><path d="M1018 212C1017.45 212 1017 212.448 1017 213 1017 213.552 1017.45 214 1018 214L1028.56 214C1028.57 214 1028.58 214.008 1028.57 214.017L995 247.586 979.5 232.086 950.293 261.293C949.896 261.677 949.885 262.31 950.268 262.707 950.652 263.104 951.285 263.115 951.682 262.732 951.691 262.724 951.699 262.715 951.707 262.707L979.5 234.914 995 250.414 1029.98 215.431C1029.99 215.422 1030 215.425 1030 215.438L1030 226C1030 226.552 1030.45 227 1031 227 1031.55 227 1032 226.552 1032 226L1032 212Z" fill="#FFFFFF"/></g></svg>