<svg width="96" height="96" xmlns="http://www.w3.org/2000/svg" xmlns:xlink="http://www.w3.org/1999/xlink" overflow="hidden"><defs><clipPath id="clip0"><rect x="123" y="180" width="96" height="96"/></clipPath></defs><g clip-path="url(#clip0)" transform="translate(-123 -180)"><path d="M184.09 235.254 184.09 229 182.09 229 182.09 237.253 184.09 235.254Z" fill="#101C32"/><path d="M188.092 231.252 188.092 215C188.092 214.448 187.644 214 187.092 214 186.54 214 186.092 214.448 186.092 215L186.092 233.252Z" fill="#101C32"/><path d="M180.092 239.251 180.092 215C180.092 214.448 179.644 214 179.092 214 178.54 214 178.092 214.448 178.092 215L178.092 241.251Z" fill="#101C32"/><path d="M166.414 233.757 166.414 215C166.414 214.448 165.966 214 165.414 214 164.862 214 164.414 214.448 164.414 215L164.414 231.757Z" fill="#101C32"/><path d="M158.414 229.929 158.414 215C158.414 214.448 157.966 214 157.414 214 156.862 214 156.414 214.448 156.414 215L156.414 231.929Z" fill="#101C32"/><path d="M129.643 229.218C130.136 229.466 130.738 229.267 130.986 228.774 131.232 228.283 131.037 227.686 130.549 227.435 130.018 227.128 129.737 226.52 129.849 225.916L132.356 211.672C132.411 211.485 132.515 211.316 132.656 211.182 133.717 210.385 134.919 209.796 136.2 209.447 137.241 209.168 138.312 209.018 139.389 209 140.43 209.01 141.465 209.159 142.466 209.443 143.754 209.791 144.963 210.382 146.03 211.183 146.172 211.29 146.272 211.442 146.314 211.615L149.43 228.185C149.533 228.728 150.056 229.084 150.599 228.981 151.003 228.905 151.318 228.589 151.395 228.185L154.495 211.674C154.532 211.479 154.639 211.305 154.795 211.183 155.864 210.381 157.075 209.79 158.365 209.441 159.365 209.158 160.399 209.01 161.438 209 162.509 209.018 163.575 209.166 164.61 209.443 165.911 209.797 167.133 210.395 168.21 211.206 168.314 211.318 168.397 211.447 168.456 211.588L171.1 228.158C171.177 228.638 171.587 228.993 172.073 229 172.555 228.994 172.969 228.656 173.073 228.185L176.173 211.674C176.209 211.479 176.316 211.304 176.473 211.183 177.542 210.381 178.753 209.79 180.043 209.441 181.043 209.158 182.076 209.01 183.115 209 184.187 209.017 185.252 209.166 186.288 209.443 187.589 209.797 188.811 210.395 189.888 211.206 189.992 211.319 190.075 211.449 190.134 211.591L192.6 226.747 194.339 225 192.089 211.183C191.929 210.549 191.564 209.985 191.052 209.578 189.776 208.622 188.329 207.917 186.789 207.502 185.59 207.185 184.356 207.016 183.115 207 181.9 207.01 180.692 207.182 179.522 207.51 177.987 207.926 176.545 208.629 175.273 209.583 174.737 209.995 174.365 210.585 174.225 211.246L172.18 222.113C172.174 222.144 172.165 222.144 172.16 222.113L170.411 211.187C170.251 210.553 169.887 209.989 169.374 209.582 168.098 208.626 166.651 207.921 165.111 207.506 163.912 207.188 162.678 207.018 161.438 207 160.223 207.01 159.015 207.182 157.845 207.51 156.311 207.926 154.871 208.629 153.6 209.583 153.063 209.994 152.691 210.584 152.551 211.246L150.423 222.539C150.423 222.568 150.409 222.568 150.403 222.539L148.268 211.189C148.122 210.548 147.754 209.979 147.23 209.583 145.96 208.629 144.52 207.926 142.987 207.512 141.815 207.182 140.604 207.01 139.387 207 138.141 207.018 136.903 207.189 135.699 207.51 134.183 207.919 132.758 208.611 131.499 209.55 130.946 209.975 130.558 210.578 130.399 211.257L127.876 225.576C127.615 227.044 128.328 228.514 129.643 229.218Z" fill="#101C32"/><path d="M161.412 205C158.651 205 156.412 202.761 156.412 200 156.412 197.239 158.651 195 161.412 195 164.173 195 166.412 197.239 166.412 200 166.409 202.76 164.172 204.997 161.412 205ZM161.412 197C159.755 197 158.412 198.343 158.412 200 158.412 201.657 159.755 203 161.412 203 163.069 203 164.412 201.657 164.412 200 164.412 198.343 163.069 197 161.412 197Z" fill="#101C32"/><path d="M139.412 205C136.651 205 134.412 202.761 134.412 200 134.412 197.239 136.651 195 139.412 195 142.173 195 144.412 197.239 144.412 200 144.409 202.76 142.172 204.997 139.412 205ZM139.412 197C137.755 197 136.412 198.343 136.412 200 136.412 201.657 137.755 203 139.412 203 141.069 203 142.412 201.657 142.412 200 142.412 198.343 141.069 197 139.412 197Z" fill="#101C32"/><path d="M183.09 205C180.329 205 178.09 202.761 178.09 200 178.09 197.239 180.329 195 183.09 195 185.851 195 188.09 197.239 188.09 200 188.087 202.76 185.85 204.997 183.09 205ZM183.09 197C181.433 197 180.09 198.343 180.09 200 180.09 201.657 181.433 203 183.09 203 184.747 203 186.09 201.657 186.09 200 186.09 198.343 184.747 197 183.09 197Z" fill="#101C32"/><path d="M134.415 236.017 134.415 251.022 137.322 251.022 140.412 247.931 140.412 236.017 142.412 236.017 142.412 245.928 144.412 243.928 144.412 236.017 148.228 236.017 144.415 222.276 144.415 215C144.415 214.448 143.967 214 143.415 214 142.863 214 142.415 214.448 142.415 215L142.415 222.413 145.601 234.013 133.23 234.013 136.415 222.545 136.415 214.996C136.415 214.444 135.967 213.996 135.415 213.996 134.863 213.996 134.415 214.444 134.415 214.996L134.415 222.272 130.6 236.017ZM136.415 236.017 138.415 236.017 138.415 249.022 136.415 249.022Z" fill="#101C32"/><path d="M199 212C198.448 212 198 212.448 198 213 198 213.552 198.448 214 199 214L209.562 214C209.575 214 209.578 214.008 209.569 214.017L176 247.586 160.5 232.086 131.293 261.293C130.896 261.677 130.885 262.31 131.268 262.707 131.652 263.104 132.285 263.115 132.682 262.732 132.691 262.724 132.699 262.715 132.707 262.707L160.5 234.914 176 250.414 210.983 215.431C210.992 215.422 211 215.425 211 215.438L211 226C211 226.552 211.448 227 212 227 212.552 227 213 226.552 213 226L213 212Z" fill="#101C32"/></g></svg>