<svg width="96" height="96" xmlns="http://www.w3.org/2000/svg" xmlns:xlink="http://www.w3.org/1999/xlink" overflow="hidden"><defs><clipPath id="clip0"><rect x="1061" y="60" width="96" height="96"/></clipPath></defs><g clip-path="url(#clip0)" transform="translate(-1061 -60)"><path d="M1149.02 77 1068.89 77 1068.89 139.025 1149.02 139.025ZM1147.02 137.025 1070.89 137.025 1070.89 93 1147.02 93ZM1147.02 91 1070.89 91 1070.89 79 1147.02 79Z" fill="#FFFFFF"/><path d="M1126 85C1126 86.1046 1125.1 87 1124 87 1122.9 87 1122 86.1046 1122 85 1122 83.8954 1122.9 83 1124 83 1125.1 83 1126 83.8954 1126 85Z" fill="#FFFFFF"/><path d="M1133 85C1133 86.1046 1132.1 87 1131 87 1129.9 87 1129 86.1046 1129 85 1129 83.8954 1129.9 83 1131 83 1132.1 83 1133 83.8954 1133 85Z" fill="#FFFFFF"/><path d="M1140 85C1140 86.1046 1139.1 87 1138 87 1136.9 87 1136 86.1046 1136 85 1136 83.8954 1136.9 83 1138 83 1139.1 83 1140 83.8954 1140 85Z" fill="#FFFFFF"/><path d="M1083.79 120.793 1085.21 122.207 1095.41 112 1084.71 101.293 1083.29 102.707 1092.59 112 1083.79 120.793Z" fill="#FFFFFF"/><path d="M1099 120 1115 120 1115 122 1099 122Z" fill="#FFFFFF"/></g></svg>