<svg width="96" height="96" xmlns="http://www.w3.org/2000/svg" xmlns:xlink="http://www.w3.org/1999/xlink" overflow="hidden"><defs><clipPath id="clip0"><rect x="242" y="60" width="96" height="96"/></clipPath></defs><g clip-path="url(#clip0)" transform="translate(-242 -60)"><path d="M330.017 77 249.891 77 249.891 139.025 330.017 139.025ZM328.017 137.025 251.891 137.025 251.891 93 328.017 93ZM328.017 91 251.891 91 251.891 79 328.017 79Z" fill="#101C32"/><path d="M307 85C307 86.1046 306.105 87 305 87 303.895 87 303 86.1046 303 85 303 83.8954 303.895 83 305 83 306.105 83 307 83.8954 307 85Z" fill="#101C32"/><path d="M314 85C314 86.1046 313.105 87 312 87 310.895 87 310 86.1046 310 85 310 83.8954 310.895 83 312 83 313.105 83 314 83.8954 314 85Z" fill="#101C32"/><path d="M321 85C321 86.1046 320.105 87 319 87 317.895 87 317 86.1046 317 85 317 83.8954 317.895 83 319 83 320.105 83 321 83.8954 321 85Z" fill="#101C32"/><path d="M264.793 120.793 266.207 122.207 276.414 112 265.707 101.293 264.293 102.707 273.586 112 264.793 120.793Z" fill="#101C32"/><path d="M280 120 296 120 296 122 280 122Z" fill="#101C32"/></g></svg>